<svg height="512pt" viewBox="-2 0 512 512" width="512pt" xmlns="http://www.w3.org/2000/svg"><path d="m430.484375 135.011719c-4.304687-71.144531-63.355469-127.511719-135.582031-127.511719-58.25 0-107.929688 36.667969-127.238282 88.179688-50.160156.605468-90.640624 41.433593-90.640624 91.738281 0 50.683593 41.085937 91.769531 91.769531 91.769531h259.175781c39.828125 0 72.117188-32.289062 72.117188-72.117188 0-38.988281-30.9375-70.726562-69.601563-72.058593zm0 0" fill="#6d6d6d"/><path d="m500.089844 207.066406c0 39.832032-32.292969 72.125-72.125 72.125h-5.585938c5.226563-9.980468 8.1875-21.347656 8.1875-33.394531 0-38.984375-30.9375-70.730469-69.601562-72.0625-4.304688-71.140625-63.359375-127.515625-135.585938-127.515625-9.742187 0-19.238281 1.027344-28.386718 2.972656 24.707031-25.695312 59.4375-41.6875 97.910156-41.6875 72.226562 0 131.28125 56.363282 135.585937 127.515625 38.664063 1.320313 69.601563 33.0625 69.601563 72.046875zm0 0" fill="#565656"/><path d="m57.257812 176.113281c3.078126-50.859375 45.296876-91.160156 96.929688-91.160156 41.648438 0 77.164062 26.214844 90.964844 63.039063 35.863281.433593 64.804687 29.625 64.804687 65.589843 0 36.234375-29.375 65.609375-65.609375 65.609375-15.167968 0-169.703125 0-185.289062 0-28.476563 0-51.558594-23.085937-51.558594-51.5625 0-27.871094 22.117188-50.5625 49.757812-51.515625zm0 0" fill="#a09d9c"/><path d="m309.957031 213.585938c0 35.921874-28.886719 65.101562-64.703125 65.589843 10.738282-11.6875 17.285156-27.257812 17.285156-44.367187 0-35.960938-28.9375-65.152344-64.808593-65.589844-13.800781-36.820312-49.3125-63.039062-90.964844-63.039062-4.917969 0-9.75.371093-14.480469 1.078124 16.800782-13.933593 38.371094-22.300781 61.898438-22.300781 41.652344 0 77.164062 26.207031 90.964844 63.039063 35.871093.4375 64.808593 29.617187 64.808593 65.589844zm0 0" fill="#82807f"/><path d="m112.507812 347.878906c0 11.3125-9.171874 20.484375-20.484374 20.484375s-20.488282-9.171875-20.488282-20.484375c0-7.425781 8.824219-21.996094 14.890625-31.140625 2.660157-4.007812 8.539063-4.007812 11.195313 0 6.066406 9.140625 14.886718 23.714844 14.886718 31.140625zm0 0" fill="#a0ecff"/><path d="m112.507812 347.878906c0 11.3125-9.167968 20.484375-20.484374 20.484375-2.835938 0-5.539063-.578125-8-1.617187 7.347656-3.113282 12.496093-10.390625 12.496093-18.867188 0-6.492187-6.742187-18.449218-12.488281-27.460937.824219-1.289063 1.625-2.519531 2.382812-3.667969 2.660157-4.011719 8.542969-4.023438 11.207032-.011719 6.0625 9.140625 14.886718 23.714844 14.886718 31.140625zm0 0" fill="#60daff"/><path d="m204.949219 347.878906c0 11.3125-9.171875 20.484375-20.484375 20.484375-11.316406 0-20.488282-9.171875-20.488282-20.484375 0-7.425781 8.824219-21.996094 14.890626-31.140625 2.65625-4.007812 8.535156-4.007812 11.195312 0 6.066406 9.140625 14.886719 23.714844 14.886719 31.140625zm0 0" fill="#a0ecff"/><path d="m204.949219 347.878906c0 11.3125-9.167969 20.484375-20.484375 20.484375-2.835938 0-5.539063-.578125-8-1.617187 7.347656-3.113282 12.496094-10.390625 12.496094-18.867188 0-6.492187-6.742188-18.449218-12.488282-27.460937.824219-1.289063 1.625-2.519531 2.382813-3.667969 2.660156-4.011719 8.542969-4.023438 11.207031-.011719 6.0625 9.140625 14.886719 23.714844 14.886719 31.140625zm0 0" fill="#60daff"/><path d="m297.390625 347.878906c0 11.3125-9.171875 20.484375-20.484375 20.484375s-20.484375-9.171875-20.484375-20.484375c0-7.425781 8.820313-21.996094 14.886719-31.140625 2.660156-4.007812 8.539062-4.007812 11.195312 0 6.066406 9.140625 14.886719 23.714844 14.886719 31.140625zm0 0" fill="#a0ecff"/><path d="m297.390625 347.878906c0 11.3125-9.167969 20.484375-20.488281 20.484375-2.835938 0-5.535156-.578125-7.996094-1.617187 7.347656-3.113282 12.492188-10.390625 12.492188-18.867188 0-6.492187-6.738282-18.449218-12.484376-27.460937.820313-1.289063 1.625-2.519531 2.382813-3.667969 2.660156-4.011719 8.542969-4.023438 11.207031-.011719 6.0625 9.140625 14.886719 23.714844 14.886719 31.140625zm0 0" fill="#60daff"/><path d="m389.832031 347.878906c0 11.3125-9.171875 20.484375-20.484375 20.484375-11.316406 0-20.488281-9.171875-20.488281-20.484375 0-7.425781 8.824219-21.996094 14.890625-31.140625 2.65625-4.007812 8.535156-4.007812 11.195312 0 6.066407 9.140625 14.886719 23.714844 14.886719 31.140625zm0 0" fill="#a0ecff"/><path d="m389.828125 347.878906c0 11.3125-9.164063 20.484375-20.484375 20.484375-2.835938 0-5.535156-.578125-7.996094-1.617187 7.34375-3.113282 12.492188-10.390625 12.492188-18.867188 0-6.492187-6.738282-18.449218-12.484375-27.460937.820312-1.289063 1.625-2.519531 2.382812-3.667969 2.660157-4.011719 8.542969-4.023438 11.203125-.011719 6.066406 9.140625 14.886719 23.714844 14.886719 31.140625zm0 0" fill="#60daff"/><path d="m112.507812 484.015625c0 11.3125-9.171874 20.484375-20.484374 20.484375s-20.488282-9.171875-20.488282-20.484375c0-7.425781 8.824219-22 14.890625-31.140625 2.660157-4.007812 8.539063-4.007812 11.195313 0 6.066406 9.140625 14.886718 23.714844 14.886718 31.140625zm0 0" fill="#a0ecff"/><path d="m112.507812 484.015625c0 11.308594-9.167968 20.484375-20.484374 20.484375-2.835938 0-5.539063-.578125-8-1.621094 7.347656-3.109375 12.496093-10.390625 12.496093-18.863281 0-6.492187-6.742187-18.449219-12.488281-27.460937.824219-1.292969 1.625-2.523438 2.382812-3.667969 2.660157-4.015625 8.542969-4.027344 11.207032-.015625 6.0625 9.144531 14.886718 23.71875 14.886718 31.144531zm0 0" fill="#60daff"/><path d="m204.949219 484.015625c0 11.3125-9.171875 20.484375-20.484375 20.484375-11.316406 0-20.488282-9.171875-20.488282-20.484375 0-7.425781 8.824219-22 14.890626-31.140625 2.65625-4.007812 8.535156-4.007812 11.195312 0 6.066406 9.140625 14.886719 23.714844 14.886719 31.140625zm0 0" fill="#a0ecff"/><path d="m204.949219 484.015625c0 11.308594-9.167969 20.484375-20.484375 20.484375-2.835938 0-5.539063-.578125-8-1.621094 7.347656-3.109375 12.496094-10.390625 12.496094-18.863281 0-6.492187-6.742188-18.449219-12.488282-27.460937.824219-1.292969 1.625-2.523438 2.382813-3.667969 2.660156-4.015625 8.542969-4.027344 11.207031-.015625 6.0625 9.144531 14.886719 23.71875 14.886719 31.144531zm0 0" fill="#60daff"/><path d="m297.390625 484.015625c0 11.3125-9.171875 20.484375-20.484375 20.484375s-20.484375-9.171875-20.484375-20.484375c0-7.425781 8.820313-22 14.886719-31.140625 2.660156-4.007812 8.539062-4.007812 11.195312 0 6.066406 9.140625 14.886719 23.714844 14.886719 31.140625zm0 0" fill="#a0ecff"/><path d="m297.390625 484.015625c0 11.308594-9.167969 20.484375-20.488281 20.484375-2.835938 0-5.535156-.578125-7.996094-1.621094 7.347656-3.109375 12.492188-10.390625 12.492188-18.863281 0-6.492187-6.738282-18.449219-12.484376-27.460937.820313-1.292969 1.625-2.523438 2.382813-3.667969 2.660156-4.015625 8.542969-4.027344 11.207031-.015625 6.0625 9.144531 14.886719 23.71875 14.886719 31.144531zm0 0" fill="#60daff"/><path d="m389.832031 484.015625c0 11.3125-9.171875 20.484375-20.484375 20.484375-11.316406 0-20.488281-9.171875-20.488281-20.484375 0-7.425781 8.824219-22 14.890625-31.140625 2.65625-4.007812 8.535156-4.007812 11.195312 0 6.066407 9.140625 14.886719 23.714844 14.886719 31.140625zm0 0" fill="#a0ecff"/><path d="m389.828125 484.015625c0 11.308594-9.164063 20.484375-20.484375 20.484375-2.835938 0-5.535156-.578125-7.996094-1.621094 7.34375-3.109375 12.492188-10.390625 12.492188-18.863281 0-6.492187-6.738282-18.449219-12.484375-27.460937.820312-1.292969 1.625-2.523438 2.382812-3.667969 2.660157-4.015625 8.542969-4.027344 11.203125-.015625 6.066406 9.144531 14.886719 23.71875 14.886719 31.144531zm0 0" fill="#60daff"/><path d="m158.730469 415.15625c0 11.316406-9.171875 20.488281-20.488281 20.488281-11.3125 0-20.484376-9.171875-20.484376-20.488281 0-7.425781 8.820313-21.996094 14.886719-31.140625 2.660157-4.003906 8.539063-4.003906 11.199219 0 6.0625 9.144531 14.886719 23.714844 14.886719 31.140625zm0 0" fill="#a0ecff"/><path d="m158.726562 415.15625c0 11.3125-9.167968 20.488281-20.484374 20.488281-2.835938 0-5.539063-.578125-8-1.621093 7.347656-3.113282 12.496093-10.390626 12.496093-18.867188 0-6.492188-6.742187-18.445312-12.488281-27.460938.824219-1.289062 1.625-2.519531 2.386719-3.667968 2.660156-4.011719 8.542969-4.023438 11.203125-.011719 6.066406 9.140625 14.886718 23.714844 14.886718 31.140625zm0 0" fill="#60daff"/><path d="m251.171875 415.15625c0 11.316406-9.171875 20.488281-20.488281 20.488281-11.3125 0-20.484375-9.171875-20.484375-20.488281 0-7.425781 8.820312-21.996094 14.886719-31.140625 2.660156-4.003906 8.539062-4.003906 11.195312 0 6.066406 9.144531 14.890625 23.714844 14.890625 31.140625zm0 0" fill="#a0ecff"/><path d="m251.167969 415.15625c0 11.3125-9.167969 20.488281-20.484375 20.488281-2.835938 0-5.539063-.578125-8-1.621093 7.347656-3.113282 12.496094-10.390626 12.496094-18.867188 0-6.492188-6.742188-18.445312-12.488282-27.460938.824219-1.289062 1.625-2.519531 2.382813-3.667968 2.660156-4.011719 8.542969-4.023438 11.207031-.011719 6.066406 9.140625 14.886719 23.714844 14.886719 31.140625zm0 0" fill="#60daff"/><path d="m343.613281 415.15625c0 11.316406-9.171875 20.488281-20.488281 20.488281-11.3125 0-20.484375-9.171875-20.484375-20.488281 0-7.425781 8.820313-21.996094 14.886719-31.140625 2.660156-4.003906 8.539062-4.003906 11.195312 0 6.066406 9.144531 14.890625 23.714844 14.890625 31.140625zm0 0" fill="#a0ecff"/><path d="m343.609375 415.15625c0 11.3125-9.167969 20.488281-20.484375 20.488281-2.835938 0-5.539062-.578125-8-1.621093 7.347656-3.113282 12.496094-10.390626 12.496094-18.867188 0-6.492188-6.742188-18.445312-12.488282-27.460938.824219-1.289062 1.625-2.519531 2.382813-3.667968 2.660156-4.011719 8.542969-4.023438 11.207031-.011719 6.066406 9.140625 14.886719 23.714844 14.886719 31.140625zm0 0" fill="#60daff"/><path d="m436.054688 415.15625c0 11.316406-9.171876 20.488281-20.488282 20.488281-11.3125 0-20.484375-9.171875-20.484375-20.488281 0-7.425781 8.820313-21.996094 14.886719-31.140625 2.660156-4.003906 8.539062-4.003906 11.195312 0 6.066407 9.144531 14.890626 23.714844 14.890626 31.140625zm0 0" fill="#a0ecff"/><path d="m436.050781 415.15625c0 11.3125-9.167969 20.488281-20.484375 20.488281-2.835937 0-5.539062-.578125-8-1.621093 7.347656-3.113282 12.496094-10.390626 12.496094-18.867188 0-6.492188-6.742188-18.445312-12.488281-27.460938.824219-1.289062 1.625-2.519531 2.382812-3.667968 2.660157-4.011719 8.542969-4.023438 11.207031-.011719 6.066407 9.140625 14.886719 23.714844 14.886719 31.140625zm0 0" fill="#60daff"/><path d="m474.511719 142.496094c-11.007813-7.941406-23.714844-12.882813-37.082031-14.46875-7.6875-72.304688-69.066407-128.027344-142.527344-128.027344-23.128906 0-45.234375 5.363281-65.699219 15.9375-3.679687 1.902344-5.121094 6.425781-3.21875 10.105469 1.902344 3.679687 6.429687 5.121093 10.105469 3.21875 18.316406-9.460938 38.101562-14.261719 58.8125-14.261719 67.742187 0 124.007812 52.914062 128.097656 120.464844.234375 3.859375 3.363281 6.910156 7.226562 7.042968 12.820313.441407 25.097657 4.644532 35.507813 12.152344 1.324219.957032 2.859375 1.417969 4.378906 1.417969 2.328125 0 4.625-1.082031 6.089844-3.113281 2.425781-3.355469 1.664063-8.042969-1.691406-10.46875zm0 0"/><path d="m498.28125 169.699219c-1.945312-3.652344-6.492188-5.039063-10.144531-3.089844-3.65625 1.945313-5.042969 6.488281-3.09375 10.144531 4.933593 9.265625 7.542969 19.746094 7.542969 30.316406 0 11.429688-3.039063 22.679688-8.792969 32.527344-2.089844 3.578125-.882813 8.171875 2.691406 10.257813 1.191406.695312 2.492187 1.027343 3.777344 1.027343 2.578125 0 5.089843-1.332031 6.484375-3.71875 7.089844-12.140624 10.839844-26.007812 10.839844-40.09375 0-13.019531-3.21875-25.941406-9.304688-37.371093zm0 0"/><path d="m463.699219 260.90625c-10.605469 7.054688-22.960938 10.78125-35.730469 10.78125h-139.324219c17.496094-13.367188 28.8125-34.4375 28.8125-58.105469 0-19.371093-7.5-37.621093-21.121093-51.394531-12.410157-12.546875-28.597657-20.058594-46.023438-21.460938-7.625-17.75-19.953125-32.953124-35.875-44.191406-9.800781-6.914062-20.570312-12.015625-31.914062-15.199218 7.140624-12.9375 16.398437-24.464844 27.609374-34.339844 3.105469-2.738282 3.40625-7.476563.667969-10.585938-2.734375-3.109375-7.476562-3.40625-10.582031-.671875-13.710938 12.074219-24.8125 26.367188-33.054688 42.523438-4.277343-.53125-8.605468-.808594-12.972656-.808594-53.046875 0-97.460937 39.804687-103.828125 91.757813-28.726562 4.183593-50.363281 28.675781-50.363281 58.417968 0 32.566406 26.492188 59.058594 59.058594 59.058594h368.910156c15.738281 0 30.964844-4.59375 44.039062-13.292969 3.449219-2.292969 4.386719-6.949219 2.089844-10.398437-2.292968-3.445313-6.949218-4.382813-10.398437-2.089844zm-404.640625 10.78125c-24.292969 0-44.058594-19.761719-44.058594-44.058594 0-23.863281 18.675781-43.199218 42.515625-44.019531 3.867187-.132813 6.996094-3.183594 7.230469-7.042969 2.855468-47.164062 42.144531-84.113281 89.441406-84.113281 37.167969 0 70.902344 23.378906 83.941406 58.171875 1.085938 2.898438 3.839844 4.832031 6.933594 4.867188 31.648438.382812 57.394531 26.441406 57.394531 58.089843 0 32.039063-26.066406 58.105469-58.109375 58.105469zm0 0"/><path d="m394.527344 126.800781c.582031 0 1.171875-.066406 1.757812-.207031 4.027344-.96875 6.511719-5.019531 5.542969-9.046875-1.460937-6.074219-3.460937-12.066406-5.941406-17.804687-1.648438-3.800782-6.0625-5.550782-9.863281-3.902344-3.800782 1.644531-5.550782 6.058594-3.90625 9.859375 2.144531 4.949219 3.867187 10.113281 5.125 15.355469.824218 3.4375 3.898437 5.746093 7.285156 5.746093zm0 0"/><path d="m363.453125 77.648438c1.472656 1.535156 3.441406 2.308593 5.410156 2.308593 1.867188 0 3.738281-.695312 5.191407-2.089843 2.988281-2.867188 3.085937-7.613282.21875-10.601563-20.976563-21.859375-49.164063-33.894531-79.371094-33.894531-4.140625 0-7.5 3.359375-7.5 7.5s3.359375 7.5 7.5 7.5c26.082031 0 50.425781 10.398437 68.550781 29.277344zm0 0"/><path d="m120.007812 347.878906c0-2.710937 0-10.964844-16.136718-35.289062-2.640625-3.980469-7.070313-6.359375-11.847656-6.359375-4.777344 0-9.207032 2.378906-11.847657 6.359375-16.140625 24.324218-16.140625 32.574218-16.140625 35.289062 0 15.429688 12.554688 27.984375 27.988282 27.984375 15.429687 0 27.984374-12.554687 27.984374-27.984375zm-40.972656 0c0-2.90625 3.417969-11.4375 12.988282-26.007812 9.570312 14.570312 12.988281 23.101562 12.988281 26.007812 0 7.160156-5.828125 12.984375-12.988281 12.984375-7.160157 0-12.988282-5.824219-12.988282-12.984375zm0 0"/><path d="m212.449219 347.878906c0-2.710937 0-10.964844-16.136719-35.289062-2.640625-3.980469-7.070312-6.359375-11.847656-6.359375s-9.207032 2.378906-11.847656 6.359375c-16.140626 24.324218-16.140626 32.574218-16.140626 35.289062 0 15.429688 12.554688 27.984375 27.988282 27.984375 15.429687 0 27.984375-12.554687 27.984375-27.984375zm-40.972657 0c0-2.90625 3.417969-11.4375 12.988282-26.007812 9.570312 14.570312 12.984375 23.101562 12.984375 26.007812 0 7.160156-5.824219 12.984375-12.984375 12.984375s-12.988282-5.824219-12.988282-12.984375zm0 0"/><path d="m304.890625 347.878906c0-2.710937 0-10.964844-16.136719-35.289062-2.644531-3.980469-7.070312-6.359375-11.851562-6.359375-4.773438 0-9.203125 2.378906-11.84375 6.359375-16.140625 24.324218-16.140625 32.574218-16.140625 35.289062 0 15.429688 12.554687 27.984375 27.984375 27.984375 15.433594 0 27.988281-12.554687 27.988281-27.984375zm-40.972656 0c0-2.90625 3.417969-11.441406 12.988281-26.007812 9.570312 14.570312 12.984375 23.101562 12.984375 26.007812 0 7.160156-5.824219 12.984375-12.984375 12.984375s-12.988281-5.824219-12.988281-12.984375zm0 0"/><path d="m397.332031 347.878906c0-2.714844 0-10.964844-16.136719-35.285156-2.640624-3.984375-7.070312-6.359375-11.847656-6.359375s-9.207031 2.375-11.851562 6.359375c-16.136719 24.324219-16.136719 32.574219-16.136719 35.285156 0 15.433594 12.554687 27.984375 27.984375 27.984375 15.433594 0 27.988281-12.554687 27.988281-27.984375zm-40.972656 0c0-2.90625 3.417969-11.4375 12.988281-26.007812 9.566406 14.570312 12.984375 23.101562 12.984375 26.007812 0 7.160156-5.824219 12.984375-12.984375 12.984375s-12.988281-5.824219-12.988281-12.984375zm0 0"/><path d="m92.023438 442.367188c-4.777344 0-9.207032 2.378906-11.847657 6.359374-16.140625 24.324219-16.140625 32.574219-16.140625 35.289063 0 15.429687 12.554688 27.984375 27.988282 27.984375 15.429687 0 27.984374-12.554688 27.984374-27.984375 0-2.710937 0-10.964844-16.136718-35.289063-2.640625-3.980468-7.070313-6.359374-11.847656-6.359374zm0 54.632812c-7.160157 0-12.988282-5.824219-12.988282-12.984375 0-2.90625 3.417969-11.4375 12.988282-26.007813 9.570312 14.570313 12.984374 23.101563 12.984374 26.007813 0 7.160156-5.824218 12.984375-12.984374 12.984375zm0 0"/><path d="m184.464844 442.367188c-4.777344 0-9.207032 2.378906-11.847656 6.359374-16.140626 24.324219-16.140626 32.574219-16.140626 35.289063 0 15.429687 12.554688 27.984375 27.988282 27.984375 15.429687 0 27.984375-12.554688 27.984375-27.984375 0-2.710937 0-10.964844-16.136719-35.289063-2.640625-3.980468-7.070312-6.359374-11.847656-6.359374zm0 54.632812c-7.160156 0-12.988282-5.824219-12.988282-12.984375 0-2.90625 3.417969-11.441406 12.988282-26.007813 9.570312 14.570313 12.984375 23.101563 12.984375 26.007813 0 7.160156-5.824219 12.984375-12.984375 12.984375zm0 0"/><path d="m276.902344 442.367188c-4.773438 0-9.203125 2.378906-11.84375 6.359374-16.140625 24.324219-16.140625 32.574219-16.140625 35.289063 0 15.429687 12.554687 27.984375 27.984375 27.984375 15.433594 0 27.988281-12.554688 27.988281-27.984375 0-2.710937 0-10.964844-16.140625-35.289063-2.640625-3.980468-7.066406-6.359374-11.847656-6.359374zm.003906 54.632812c-7.164062 0-12.988281-5.824219-12.988281-12.984375 0-2.90625 3.417969-11.441406 12.988281-26.007813 9.570312 14.570313 12.984375 23.101563 12.984375 26.007813 0 7.160156-5.824219 12.984375-12.984375 12.984375zm0 0"/><path d="m369.347656 442.367188c-4.777344 0-9.207031 2.378906-11.851562 6.359374-16.136719 24.324219-16.136719 32.574219-16.136719 35.289063 0 15.429687 12.554687 27.984375 27.984375 27.984375 15.433594 0 27.988281-12.554688 27.988281-27.984375 0-2.714844 0-10.964844-16.140625-35.289063-2.636718-3.980468-7.066406-6.359374-11.84375-6.359374zm0 54.632812c-7.164062 0-12.988281-5.824219-12.988281-12.984375 0-2.90625 3.417969-11.4375 12.988281-26.007813 9.566406 14.566407 12.984375 23.101563 12.984375 26.007813 0 7.160156-5.824219 12.984375-12.984375 12.984375zm0 0"/><path d="m166.230469 415.15625c0-2.710938 0-10.960938-16.140625-35.285156-2.640625-3.984375-7.070313-6.359375-11.847656-6.359375-4.777344 0-9.207032 2.375-11.847657 6.359375-16.136719 24.320312-16.136719 32.574218-16.136719 35.285156 0 15.433594 12.554688 27.988281 27.984376 27.988281 15.429687 0 27.988281-12.554687 27.988281-27.988281zm-27.988281 12.988281c-7.160157 0-12.984376-5.828125-12.984376-12.988281 0-2.90625 3.417969-11.4375 12.984376-26.007812 9.570312 14.570312 12.988281 23.105468 12.988281 26.007812 0 7.160156-5.828125 12.988281-12.988281 12.988281zm0 0"/><path d="m258.671875 415.15625c0-2.710938 0-10.964844-16.140625-35.285156-2.640625-3.980469-7.070312-6.359375-11.847656-6.359375s-9.203125 2.378906-11.847656 6.359375c-16.136719 24.324218-16.136719 32.574218-16.136719 35.285156 0 15.433594 12.554687 27.988281 27.984375 27.988281 15.429687 0 27.988281-12.554687 27.988281-27.988281zm-27.988281 12.988281c-7.160156 0-12.984375-5.828125-12.984375-12.988281 0-2.902344 3.417969-11.4375 12.984375-26.007812 9.570312 14.570312 12.988281 23.101562 12.988281 26.007812 0 7.160156-5.828125 12.988281-12.988281 12.988281zm0 0"/><path d="m351.113281 415.15625c0-2.710938 0-10.960938-16.140625-35.285156-2.640625-3.980469-7.070312-6.359375-11.847656-6.359375s-9.203125 2.375-11.847656 6.359375c-16.136719 24.324218-16.136719 32.574218-16.136719 35.285156 0 15.433594 12.554687 27.988281 27.984375 27.988281s27.988281-12.554687 27.988281-27.988281zm-27.988281 12.988281c-7.160156 0-12.984375-5.828125-12.984375-12.988281 0-2.902344 3.417969-11.4375 12.988281-26.007812 9.566406 14.570312 12.984375 23.105468 12.984375 26.007812 0 7.160156-5.828125 12.988281-12.988281 12.988281zm0 0"/><path d="m415.566406 373.511719c-4.777344 0-9.207031 2.375-11.847656 6.359375-16.140625 24.324218-16.140625 32.574218-16.140625 35.285156 0 15.433594 12.558594 27.988281 27.988281 27.988281 15.429688 0 27.984375-12.554687 27.984375-27.988281 0-2.710938 0-10.960938-16.136719-35.285156-2.640624-3.980469-7.070312-6.359375-11.847656-6.359375zm0 54.632812c-7.160156 0-12.984375-5.828125-12.984375-12.988281 0-2.902344 3.414063-11.4375 12.984375-26.007812 9.570313 14.574218 12.988282 23.105468 12.988282 26.007812 0 7.160156-5.828126 12.988281-12.988282 12.988281zm0 0"/></svg>